<svg id="visual" viewBox="0 0 900 600" width="900" height="600" xmlns="http://www.w3.org/2000/svg" xmlns:xlink="http://www.w3.org/1999/xlink" version="1.1"><path d="M0 43L82 55L164 73L245 37L327 73L409 49L491 91L573 49L655 61L736 79L818 37L900 61L900 0L818 0L736 0L655 0L573 0L491 0L409 0L327 0L245 0L164 0L82 0L0 0Z" fill="#ffffff"></path><path d="M0 229L82 235L164 187L245 277L327 151L409 187L491 193L573 301L655 211L736 223L818 265L900 169L900 59L818 35L736 77L655 59L573 47L491 89L409 47L327 71L245 35L164 71L82 53L0 41Z" fill="#c0cfcb"></path><path d="M0 313L82 385L164 337L245 397L327 235L409 301L491 331L573 397L655 355L736 367L818 397L900 223L900 167L818 263L736 221L655 209L573 299L491 191L409 185L327 149L245 275L164 185L82 233L0 227Z" fill="#83a09a"></path><path d="M0 403L82 481L164 397L245 439L327 361L409 349L491 409L573 493L655 475L736 451L818 517L900 307L900 221L818 395L736 365L655 353L573 395L491 329L409 299L327 233L245 395L164 335L82 383L0 311Z" fill="#48736b"></path><path d="M0 601L82 601L164 601L245 601L327 601L409 601L491 601L573 601L655 601L736 601L818 601L900 601L900 305L818 515L736 449L655 473L573 491L491 407L409 347L327 359L245 437L164 395L82 479L0 401Z" fill="#014940"></path></svg>