<svg id="visual" viewBox="0 0 900 600" width="900" height="600" xmlns="http://www.w3.org/2000/svg" xmlns:xlink="http://www.w3.org/1999/xlink" version="1.1"><path d="M0 61L25 61C50 61 100 61 150 64C200 67 250 73 300 78C350 83 400 87 450 85C500 83 550 75 600 70C650 65 700 63 750 63C800 63 850 65 875 66L900 67L900 0L875 0C850 0 800 0 750 0C700 0 650 0 600 0C550 0 500 0 450 0C400 0 350 0 300 0C250 0 200 0 150 0C100 0 50 0 25 0L0 0Z" fill="#75310d"></path><path d="M0 157L25 158C50 159 100 161 150 164C200 167 250 171 300 174C350 177 400 179 450 173C500 167 550 153 600 151C650 149 700 159 750 157C800 155 850 141 875 134L900 127L900 65L875 64C850 63 800 61 750 61C700 61 650 63 600 68C550 73 500 81 450 83C400 85 350 81 300 76C250 71 200 65 150 62C100 59 50 59 25 59L0 59Z" fill="#83370c"></path><path d="M0 301L25 309C50 317 100 333 150 338C200 343 250 337 300 331C350 325 400 319 450 308C500 297 550 281 600 279C650 277 700 289 750 289C800 289 850 277 875 271L900 265L900 125L875 132C850 139 800 153 750 155C700 157 650 147 600 149C550 151 500 165 450 171C400 177 350 175 300 172C250 169 200 165 150 162C100 159 50 157 25 156L0 155Z" fill="#903d0a"></path><path d="M0 457L25 455C50 453 100 449 150 448C200 447 250 449 300 449C350 449 400 447 450 449C500 451 550 457 600 459C650 461 700 459 750 455C800 451 850 445 875 442L900 439L900 263L875 269C850 275 800 287 750 287C700 287 650 275 600 277C550 279 500 295 450 306C400 317 350 323 300 329C250 335 200 341 150 336C100 331 50 315 25 307L0 299Z" fill="#9e4307"></path><path d="M0 493L25 492C50 491 100 489 150 492C200 495 250 503 300 502C350 501 400 491 450 493C500 495 550 509 600 512C650 515 700 507 750 503C800 499 850 499 875 499L900 499L900 437L875 440C850 443 800 449 750 453C700 457 650 459 600 457C550 455 500 449 450 447C400 445 350 447 300 447C250 447 200 445 150 446C100 447 50 451 25 453L0 455Z" fill="#a95019"></path><path d="M0 547L25 547C50 547 100 547 150 548C200 549 250 551 300 552C350 553 400 553 450 556C500 559 550 565 600 566C650 567 700 563 750 560C800 557 850 555 875 554L900 553L900 497L875 497C850 497 800 497 750 501C700 505 650 513 600 510C550 507 500 493 450 491C400 489 350 499 300 500C250 501 200 493 150 490C100 487 50 489 25 490L0 491Z" fill="#b35d28"></path><path d="M0 601L25 601C50 601 100 601 150 601C200 601 250 601 300 601C350 601 400 601 450 601C500 601 550 601 600 601C650 601 700 601 750 601C800 601 850 601 875 601L900 601L900 551L875 552C850 553 800 555 750 558C700 561 650 565 600 564C550 563 500 557 450 554C400 551 350 551 300 550C250 549 200 547 150 546C100 545 50 545 25 545L0 545Z" fill="#be6a36"></path></svg>